<?xml version="1.0" encoding="utf-8"?>
<!-- Generator: Adobe Illustrator 22.1.0, SVG Export Plug-In . SVG Version: 6.00 Build 0)  -->
<svg version="1.1" id="Layer_3" xmlns="http://www.w3.org/2000/svg" xmlns:xlink="http://www.w3.org/1999/xlink" x="0px" y="0px"
	 viewBox="0 0 324.3 137.1" style="enable-background:new 0 0 324.3 137.1;" xml:space="preserve">
<g>
	<path d="M323.7,86.6l-4.6-3.1L317.7,63c0-0.3-0.1-0.6-0.3-0.8l-2.5-3.3c-0.3-0.4-0.7-0.6-1.2-0.6h-0.5
		C309,48,297.3,40.1,292.4,37.1l0,0c0.5-0.3,0.8-1,0.7-1.6c-0.1-0.6-0.6-1.1-1.3-1.2l-25.4-3.6l-0.5-2.5l15.6-25.9
		c0.4-0.7,0.2-1.6-0.5-2.1c-0.7-0.4-1.6-0.2-2.1,0.5l-15.6,25.9l-6.9,2.6l-0.9-0.1c-0.4,0-44.9-3.7-59.6-3.5
		c-8.6,0.1-25.5,1.4-33.7,2.9c-4.4,0.8-16.8,4.5-17.3,4.7c0,0,0,0,0,0c-0.1,0-0.2,0.1-0.3,0.1L97.2,59.7l-1.9-0.9
		c-0.2-0.1-0.5-0.2-0.8-0.1c-0.3,0-30.8,3-41.6,4.6c-0.9,0.1-2,0.3-3.1,0.5c-9.9,1.5-26.6,3.9-34.4,7.9c-5.4,2.8-10.2,8.3-10.4,8.5
		c0,0,0,0.1,0,0.1c-0.1,0.1-0.1,0.2-0.2,0.3c0,0.1-0.1,0.1-0.1,0.1c0,0.1-0.1,0.2-0.1,0.3c0,0,0,0.1,0,0.1c0,0,0,0,0,0v6.5l-0.4,6
		c-1,0.1-2.3,0.4-3.6,1.4c-0.4,0.3-0.9,0.8-0.7,2.4C0,97.5,0,97.7,0,97.8c0,0.3,0.1,0.7,0.3,0.9c0.4,1.5,1.1,3.5,2.5,6.5
		c0.2,0.5,0.8,0.9,1.4,0.9h0.7l0.8,6.6c-0.6,0.2-1.2,0.3-1.8,0.4c-0.7,0.1-1.2,0.8-1.2,1.5v5c0,0.8,0.7,1.5,1.5,1.5h21.5
		c0.4,0,0.8-0.2,1.1-0.5c0.3-0.3,0.4-0.7,0.4-1.1c0-0.2-0.7-18.1,9.3-28.4c4.7-4.8,11.2-7.2,19.2-7.1c7.8,0.2,13.9,2.8,18.2,7.7
		c9.5,10.9,7.4,29.9,7.3,30.1c-0.1,0.4,0.1,0.9,0.4,1.2c0.3,0.3,0.7,0.5,1.1,0.5c0,0,0,0,0,0l147.8-1c0.4,0,0.8-0.2,1.1-0.5
		c0.3-0.3,0.4-0.7,0.4-1.1c0-1.3-0.1-28.7,20.2-34.1c-10.3,3.3-17.8,13-17.8,24.4c0,14.1,11.5,25.6,25.6,25.6
		c14.1,0,25.6-11.5,25.6-25.6c0-11.4-7.5-21.1-17.9-24.4c4.6,1.1,8.6,3.2,11.8,6.4c9.5,9.2,9.8,24.2,9.8,24.4c0,0.4,0.2,0.8,0.5,1.1
		c0.3,0.3,0.8,0.4,1.2,0.3l28-4.2c0.6-0.1,1.2-0.6,1.3-1.3l4-25.8C324.4,87.4,324.2,86.9,323.7,86.6z M263.3,29.9l0.1,0.3l-0.7-0.1
		L263.3,29.9z M297.7,58.4l9.4,2.6l2,3c-0.9,5.1,0.3,9.9,1.4,12.8c-11.1-2.7-17.4-9.4-17.3-12.1C293.3,62.6,296.1,59.8,297.7,58.4z
		 M309.9,58.3h-1.7l-10-2.8l-12.1-14.6l3.3-2C292.6,40.7,305.1,48.4,309.9,58.3z M284.1,38.6l-2.9-2.8l6.1,0.9L284.1,38.6z
		 M258,40.7c3.2,1.1,5,2.3,5.5,3.8c0.6,1.5,0,3.5-1.7,6.5c-0.4,0.8-1.6,2.5-3.3,4.9l-19,0.5l3.2-19.2
		C249.7,38.4,254.9,39.6,258,40.7z M221.7,105.8c-10.2,1.9-24.3,3-39.3,3.6l-1.5-3.9l3.9-39.8l2.9-4.9l68.7-1.7
		C246,73.4,224.7,101.8,221.7,105.8z M117.8,57.3l1.5-0.9c0,0,0,0,0.1,0.1c0.5,0.4,1.9,1.6,3.6,2.7l-8.9,0.2L117.8,57.3z
		 M132.1,56.1c0,0.7,0,2.5-3.5,2.5c-1.2,0-3.8-1.6-5.9-3.2c2-1.5,4.6-3.1,5.8-3.1C130.5,52.3,132.1,54,132.1,56.1z M130.9,49.8
		c-0.1,0-0.1,0-0.2-0.1l0.2-0.1L130.9,49.8z M104.4,65.2l4.4-2.5l75.4-1.9l-2.2,3.6c-0.1,0.2-0.2,0.4-0.2,0.6l-4,40.5
		c0,0.2,0,0.5,0.1,0.7l1.3,3.3c-32.1,1.1-67,0-74.3-0.3L102.9,69L104.4,65.2z M236.6,56.5l-41.2,1l4.4-24
		c15.7,0.2,29.6,1.6,40.1,3.2L236.6,56.5z M192.3,57.6l-3.5,0.1l5.6-24.2c0.8,0,1.6,0,2.3,0L192.3,57.6z M185.6,57.7l-3.4,0.1
		l7.2-24.3c0.6,0,1.2,0,1.8,0L185.6,57.7z M179.1,57.9L134.3,59c0.5-0.8,0.8-1.8,0.8-2.9c0-1.7-0.6-3.2-1.6-4.4l1.3-4.3l13.5-7.9
		c1-0.4,12.7-4.9,38-5.8L179.1,57.9z M144.9,36.6l0.7,1l-42.4,24.8l-2.5-1.2L144.9,36.6z M9.7,81.2c3.5-1.5,7.7-3.1,9.4-3
		c1.9,0.1,6.5,2.2,10.1,4.1c-4.6,2.9-12.5,7.4-15.8,7.4c0,0,0,0,0,0c-0.8,0-3.3-1.3-5.5-2.6L9.7,81.2z M7.9,106.1h4.8
		c-0.6,1.3-1.5,3.1-2.5,4.7c-0.2,0.3-0.8,0.6-1.5,1L7.9,106.1z M282.6,111.4c0,12.5-10.1,22.6-22.6,22.6
		c-12.5,0-22.6-10.1-22.6-22.6s10.1-22.6,22.6-22.6C272.5,88.8,282.6,99,282.6,111.4z M317.5,112.3l-25.3,3.8
		c-0.3-4.5-2-16.5-10.6-24.8c-5.7-5.6-13.4-8.3-22.7-8.1c-26.6,0.5-29.6,29.5-29.9,36.5l-144.7,1c0.3-5.1,0.5-20.7-8.2-30.7
		c-4.9-5.6-11.8-8.6-20.4-8.8c-0.3,0-0.6,0-0.9,0c-8.4,0-15.3,2.7-20.5,8c-9.2,9.4-10.1,24.2-10.2,29H5.7v-2.3
		c2.1-0.5,5.7-1.6,6.9-3.4c2.1-3.1,3.7-7.1,3.7-7.3c0.2-0.5,0.1-1-0.2-1.4c-0.3-0.4-0.7-0.7-1.2-0.7H5.2c-0.6-1.3-1.1-2.7-1.5-3.8
		h19.7c0.8,0,1.5-0.7,1.5-1.5s-0.7-1.5-1.5-1.5H6.6c0.3-0.3,0.5-0.6,0.6-1.1l0.3-5c1.9,1.1,4.4,2.4,5.9,2.4c0,0,0,0,0,0
		c5.5,0,18.2-8.3,19.6-9.3c0.4-0.3,0.7-0.8,0.7-1.3s-0.3-1-0.8-1.3c-1-0.6-9.9-5.6-13.7-5.7c-1.4-0.1-3.5,0.5-5.7,1.3
		c1.1-0.8,2.2-1.5,3.3-2.1c7.4-3.8,23.7-6.2,33.5-7.6c1.1-0.2,2.1-0.3,3.1-0.5c10.1-1.5,37.3-4.2,41-4.6l6.9,3.2l-1.3,3.4
		c-0.1,0.2-0.1,0.4-0.1,0.6l2.2,41.8c0,0.8,0.7,1.4,1.4,1.4c0.4,0,20.5,0.8,45.1,0.8c10.5,0,21.8-0.1,32.7-0.5c0,0,0.1,0,0.1,0
		c0,0,0.1,0,0.1,0c15.7-0.6,30.7-1.7,41.3-3.8c0.4-0.1,0.7-0.3,0.9-0.6c1.3-1.7,26.8-35.6,36.9-49.8c0,0,0,0,0,0
		c1.9-2.7,3.3-4.8,3.8-5.7c1.6-2.8,3-6,1.9-9c-0.9-2.4-3.2-4.2-7.3-5.6c-3.4-1.2-9.3-2.6-17.1-3.9c0,0,0,0-0.1,0c0,0,0,0-0.1,0
		c-12.4-2-29.4-3.7-48.7-3.5c-27.1,0.3-41,4.4-44.9,5.8l-0.5-0.8c3.7-1.1,11.8-3.5,15.1-4c8.1-1.4,24.8-2.7,33.3-2.8
		c14.7-0.2,58.9,3.5,59.3,3.5l20.8,3l6.7,6.4l12.5,15.1c-1.8,1.6-4.9,4.8-5.1,8.1c-0.2,4.9,8.5,13.4,22.6,15.7c0.1,0,0.2,0,0.2,0
		c0.5,0,0.9-0.2,1.2-0.6c0.3-0.5,0.4-1.1,0.1-1.6c0-0.1-3.7-7.1-2.2-14.1c0.1-0.4,0-0.8-0.2-1.2l-1.1-1.7h2.1l1.8,2.4l1.5,20.7
		c0,0.5,0.3,0.9,0.7,1.1l3.1,2.1l-24.8,1.2c-0.8,0-1.5,0.7-1.4,1.6c0,0.8,0.7,1.4,1.5,1.4c0,0,0,0,0.1,0l25.6-1.2L317.5,112.3z"/>
	<path d="M163.7,73.3h14.5c0.8,0,1.5-0.7,1.5-1.5s-0.7-1.5-1.5-1.5h-14.5c-0.8,0-1.5,0.7-1.5,1.5S162.9,73.3,163.7,73.3z"/>
	<path d="M244.1,68.5l-14.7,0.7c-0.8,0-1.5,0.7-1.4,1.6c0,0.8,0.7,1.4,1.5,1.4c0,0,0,0,0.1,0l14.7-0.7c0.8,0,1.5-0.7,1.4-1.6
		C245.6,69.1,245,68.4,244.1,68.5z"/>
	<path d="M95.8,71.6h-6.2c-0.8,0-1.5,0.7-1.5,1.5s0.7,1.5,1.5,1.5h6.2c0.8,0,1.5-0.7,1.5-1.5S96.7,71.6,95.8,71.6z"/>
	<path d="M54.2,85.4C40,85.4,28.6,96.9,28.6,111s11.5,25.6,25.6,25.6s25.6-11.5,25.6-25.6S68.3,85.4,54.2,85.4z M54.2,133.6
		c-12.5,0-22.6-10.1-22.6-22.6s10.1-22.6,22.6-22.6S76.8,98.5,76.8,111S66.7,133.6,54.2,133.6z"/>
	<path d="M54.2,90.8c-11.2,0-20.2,9.1-20.2,20.2s9.1,20.2,20.2,20.2s20.2-9.1,20.2-20.2S65.3,90.8,54.2,90.8z M54.2,128.2
		c-9.5,0-17.2-7.7-17.2-17.2s7.7-17.2,17.2-17.2s17.2,7.7,17.2,17.2S63.7,128.2,54.2,128.2z"/>
	<path d="M54.2,106.8c-2.3,0-4.2,1.9-4.2,4.2s1.9,4.2,4.2,4.2s4.2-1.9,4.2-4.2S56.5,106.8,54.2,106.8z M54.2,112.2
		c-0.6,0-1.2-0.5-1.2-1.2s0.5-1.2,1.2-1.2s1.2,0.5,1.2,1.2S54.8,112.2,54.2,112.2z"/>
	<path d="M239.8,111.4c0,11.2,9.1,20.2,20.2,20.2s20.2-9.1,20.2-20.2s-9.1-20.2-20.2-20.2S239.8,100.3,239.8,111.4z M277.3,111.4
		c0,9.5-7.7,17.2-17.2,17.2s-17.2-7.7-17.2-17.2s7.7-17.2,17.2-17.2S277.3,101.9,277.3,111.4z"/>
	<path d="M255.9,111.4c0,2.3,1.9,4.2,4.2,4.2s4.2-1.9,4.2-4.2s-1.9-4.2-4.2-4.2S255.9,109.1,255.9,111.4z M261.2,111.4
		c0,0.6-0.5,1.2-1.2,1.2s-1.2-0.5-1.2-1.2s0.5-1.2,1.2-1.2S261.2,110.8,261.2,111.4z"/>
</g>
</svg>
