<?xml version="1.0" encoding="utf-8"?>
<!-- Generator: Adobe Illustrator 22.1.0, SVG Export Plug-In . SVG Version: 6.00 Build 0)  -->
<svg version="1.1" id="Layer_2" xmlns="http://www.w3.org/2000/svg" xmlns:xlink="http://www.w3.org/1999/xlink" x="0px" y="0px"
	 viewBox="0 0 53.5 140.5" style="enable-background:new 0 0 53.5 140.5;" xml:space="preserve">
<g>
	<path d="M9.1,70.2h26.7V40.5H9.1V70.2z M10.1,41.5h24.7v27.7H10.1V41.5z"/>
	<path d="M11.8,67.2h21.3V43.5H11.8V67.2z M12.8,44.5h19.3v21.7H12.8V44.5z"/>
	<path d="M9.1,91.2h26.7V80.5H9.1V91.2z M10.1,81.5h24.7v8.7H10.1V81.5z"/>
	<path d="M11.8,88.5h21.3v-5.3H11.8V88.5z M12.8,84.2h19.3v3.3H12.8V84.2z"/>
	<path d="M22.5,18.2c2.1,0,4-1.3,4.8-3.2h3.6v-4.2h-3.6c-0.8-1.9-2.7-3.2-4.8-3.2c-2.1,0-4,1.3-4.8,3.2H14V15h3.6
		C18.5,16.9,20.4,18.2,22.5,18.2z M22.5,8.7c1.6,0,3,0.8,3.7,2.2h-7.4C19.5,9.5,20.9,8.7,22.5,8.7z M15,11.8h14.8V14H15V11.8z
		 M26.2,15c-0.7,1.3-2.2,2.2-3.7,2.2c-1.6,0-3-0.8-3.7-2.2H26.2z"/>
	<path d="M53.5,108.9c0-7.2-2.3-9.6-4.4-11.8C47.5,95.5,46,94,46,90.1V78.8h1V67.3c1.5-0.6,2.5-2,2.5-3.7s-1.1-3.1-2.5-3.7v-7.1
		c0-2.1-2.8-6.4-5-6.4h-1.9V33.2H38v-4.7H27.2v-3.6c4.8-1.9,8.2-6.6,8.2-12C35.4,5.8,29.6,0,22.5,0S9.5,5.8,9.5,12.9
		c0,5.2,3.1,9.7,7.5,11.7v3.9H6.3v4.7H4.1v14.2l-4.1,3v5.5h1.4V81c0,1,0,2.1,0,3.2c-0.1,7.8-0.2,18.5,2.8,23.7v25.2H0.5v7.3h43.3
		v-7.3h-3.7v-6.7C44.7,126.1,53.5,121.6,53.5,108.9z M48.4,97.9c2,2.1,4.1,4.3,4.1,11.1c0,11.9-8.2,16.2-12.4,16.5v-1.7
		c5-0.2,10.6-4.2,10.6-14.9c0-6.2-2.2-8.7-4.2-10.8c-1.6-1.7-3-3.2-3-6.6V78.8H45v11.2C45,94.4,46.7,96.1,48.4,97.9z M43.8,60.1
		c-1.3,0.7-2.2,2-2.2,3.6c0,1.4,0.7,2.6,1.8,3.3v8h-2.4v3.9h1.7v12.6c0,3.7,1.6,5.4,3.2,7.2c1.9,2.1,3.9,4.3,3.9,10.1
		c0,9.9-5.1,13.6-9.6,13.9V50.2h1.2c0.9,0,2.4,2.5,2.4,3.6V60.1z M46,77.8h-3.4h-0.7v-1.9h2.4v-8.5c0.4,0.1,0.8,0.2,1.2,0.2
		c0.2,0,0.3,0,0.5,0V77.8z M48.5,63.6c0,1.7-1.3,3-3,3s-3-1.3-3-3s1.3-3,3-3S48.5,62,48.5,63.6z M42,47.4c1.5,0,4,3.7,4,5.4v6.8
		c-0.2,0-0.3,0-0.5,0c-0.3,0-0.5,0-0.8,0.1v-5.9c0-1.4-1.7-4.6-3.4-4.6h-1.2v-1.8H42z M10.5,12.9C10.5,6.3,15.9,1,22.5,1
		C29,1,34.4,6.3,34.4,12.9c0,6.6-5.3,11.9-11.9,11.9C15.9,24.8,10.5,19.5,10.5,12.9z M18.1,25c1.4,0.5,2.9,0.8,4.4,0.8
		c1.3,0,2.6-0.2,3.7-0.6v3.2h-8.1V25z M7.3,29.5h9.8h10.1H37v3.7H7.3V29.5z M1,50.8l3.1-2.3v6.3H1V50.8z M2.4,84.2
		c0-1.2,0-2.2,0-3.2V55.8h1.8v49.7C2.2,100,2.3,90.7,2.4,84.2z M42.8,134.2v5.3H1.5v-5.3h2.7h8h4.7h3.3h4.7h3.3h4.7h7.3H42.8z
		 M15.8,133.2h-2.7v-16.8h2.7V133.2z M23.8,133.2h-2.7v-22.7h2.7V133.2z M31.8,133.2h-2.7v-16.8h2.7V133.2z M32.8,133.2v-17.8h-4.7
		v17.8h-3.3v-23.7h-4.7v23.7h-3.3v-17.8h-4.7v17.8h-7V55.8v-9.2V34.2h1.2H38h1.2v12.3v3.8v83H32.8z"/>
</g>
</svg>
